<svg width="99" height="25" viewBox="0 0 99 25" fill="none" xmlns="http://www.w3.org/2000/svg">
<path d="M21.5568 8.875H16.5795C16.4886 8.23106 16.303 7.65909 16.0227 7.15909C15.7424 6.65151 15.3826 6.2197 14.9432 5.86364C14.5038 5.50757 13.9962 5.23485 13.4205 5.04545C12.8523 4.85606 12.2348 4.76136 11.5682 4.76136C10.3636 4.76136 9.31439 5.06061 8.42045 5.65909C7.52652 6.25 6.83333 7.11364 6.34091 8.25C5.84849 9.37879 5.60227 10.75 5.60227 12.3636C5.60227 14.0227 5.84849 15.4167 6.34091 16.5455C6.84091 17.6742 7.53788 18.5265 8.43182 19.1023C9.32576 19.678 10.3598 19.9659 11.5341 19.9659C12.1932 19.9659 12.803 19.8788 13.3636 19.7045C13.9318 19.5303 14.4356 19.2765 14.875 18.9432C15.3144 18.6023 15.678 18.1894 15.9659 17.7045C16.2614 17.2197 16.4659 16.6667 16.5795 16.0455L21.5568 16.0682C21.428 17.1364 21.1061 18.1667 20.5909 19.1591C20.0833 20.1439 19.3977 21.0265 18.5341 21.8068C17.678 22.5795 16.6553 23.1932 15.4659 23.6477C14.2841 24.0947 12.947 24.3182 11.4545 24.3182C9.37879 24.3182 7.52273 23.8485 5.88636 22.9091C4.25758 21.9697 2.9697 20.6098 2.02273 18.8295C1.08333 17.0492 0.613636 14.8939 0.613636 12.3636C0.613636 9.82576 1.09091 7.66667 2.04545 5.88636C3 4.10606 4.29545 2.75 5.93182 1.81818C7.56818 0.878787 9.40909 0.40909 11.4545 0.40909C12.803 0.40909 14.053 0.598484 15.2045 0.977272C16.3636 1.35606 17.3902 1.90909 18.2841 2.63636C19.178 3.35606 19.9053 4.23864 20.4659 5.28409C21.0341 6.32954 21.3977 7.52651 21.5568 8.875ZM32.8807 24.3409C31.1155 24.3409 29.589 23.9659 28.3011 23.2159C27.0208 22.4583 26.0322 21.4053 25.3352 20.0568C24.6383 18.7008 24.2898 17.1288 24.2898 15.3409C24.2898 13.5379 24.6383 11.9621 25.3352 10.6136C26.0322 9.25758 27.0208 8.20454 28.3011 7.45454C29.589 6.69697 31.1155 6.31818 32.8807 6.31818C34.6458 6.31818 36.1686 6.69697 37.4489 7.45454C38.7367 8.20454 39.7292 9.25758 40.4261 10.6136C41.1231 11.9621 41.4716 13.5379 41.4716 15.3409C41.4716 17.1288 41.1231 18.7008 40.4261 20.0568C39.7292 21.4053 38.7367 22.4583 37.4489 23.2159C36.1686 23.9659 34.6458 24.3409 32.8807 24.3409ZM32.9034 20.5909C33.7064 20.5909 34.3769 20.3636 34.9148 19.9091C35.4527 19.447 35.858 18.8182 36.1307 18.0227C36.411 17.2273 36.5511 16.322 36.5511 15.3068C36.5511 14.2917 36.411 13.3864 36.1307 12.5909C35.858 11.7955 35.4527 11.1667 34.9148 10.7045C34.3769 10.2424 33.7064 10.0114 32.9034 10.0114C32.0928 10.0114 31.411 10.2424 30.858 10.7045C30.3125 11.1667 29.8996 11.7955 29.6193 12.5909C29.3466 13.3864 29.2102 14.2917 29.2102 15.3068C29.2102 16.322 29.3466 17.2273 29.6193 18.0227C29.8996 18.8182 30.3125 19.447 30.858 19.9091C31.411 20.3636 32.0928 20.5909 32.9034 20.5909ZM44.7102 24V0.727272H49.6307V19.9432H59.608V24H44.7102ZM67.7528 24.3295C66.6392 24.3295 65.6468 24.1364 64.7756 23.75C63.9044 23.3561 63.215 22.7765 62.7074 22.0114C62.2074 21.2386 61.9574 20.2765 61.9574 19.125C61.9574 18.1553 62.1354 17.3409 62.4915 16.6818C62.8475 16.0227 63.3324 15.4924 63.946 15.0909C64.5597 14.6894 65.2566 14.3864 66.0369 14.1818C66.8248 13.9773 67.6506 13.8333 68.5142 13.75C69.5294 13.6439 70.3475 13.5455 70.9688 13.4545C71.59 13.3561 72.0407 13.2121 72.321 13.0227C72.6013 12.8333 72.7415 12.553 72.7415 12.1818V12.1136C72.7415 11.3939 72.5142 10.8371 72.0597 10.4432C71.6127 10.0492 70.9763 9.85227 70.1506 9.85227C69.2794 9.85227 68.5862 10.0455 68.071 10.4318C67.5559 10.8106 67.215 11.2879 67.0483 11.8636L62.571 11.5C62.7983 10.4394 63.2453 9.52273 63.9119 8.75C64.5786 7.9697 65.4384 7.37121 66.4915 6.95454C67.5521 6.5303 68.7794 6.31818 70.1733 6.31818C71.143 6.31818 72.071 6.43182 72.9574 6.65909C73.8513 6.88636 74.643 7.23864 75.3324 7.71591C76.0294 8.19318 76.5786 8.80682 76.9801 9.55682C77.3816 10.2992 77.5824 11.1894 77.5824 12.2273V24H72.9915V21.5795H72.8551C72.5748 22.125 72.1998 22.6061 71.7301 23.0227C71.2604 23.4318 70.696 23.7538 70.0369 23.9886C69.3778 24.2159 68.6165 24.3295 67.7528 24.3295ZM69.1392 20.9886C69.8513 20.9886 70.4801 20.8485 71.0256 20.5682C71.571 20.2803 71.9991 19.8939 72.3097 19.4091C72.6203 18.9242 72.7756 18.375 72.7756 17.7614V15.9091C72.6241 16.0076 72.4157 16.0985 72.1506 16.1818C71.893 16.2576 71.6013 16.3295 71.2756 16.3977C70.9498 16.4583 70.6241 16.5152 70.2983 16.5682C69.9725 16.6136 69.6771 16.6553 69.4119 16.6932C68.8438 16.7765 68.3475 16.9091 67.9233 17.0909C67.4991 17.2727 67.1695 17.5189 66.9347 17.8295C66.6998 18.1326 66.5824 18.5114 66.5824 18.9659C66.5824 19.625 66.821 20.1288 67.2983 20.4773C67.7831 20.8182 68.3968 20.9886 69.1392 20.9886ZM81.429 24V0.727272H86.2699V9.47727H86.4176C86.6297 9.00758 86.9366 8.5303 87.3381 8.04545C87.7472 7.55303 88.2775 7.14394 88.929 6.81818C89.5881 6.48485 90.4063 6.31818 91.3835 6.31818C92.6563 6.31818 93.8305 6.65152 94.9062 7.31818C95.982 7.97727 96.8419 8.97348 97.4858 10.3068C98.1297 11.6326 98.4517 13.2955 98.4517 15.2955C98.4517 17.2424 98.1373 18.8864 97.5085 20.2273C96.8873 21.5606 96.0388 22.572 94.9631 23.2614C93.8949 23.9432 92.6979 24.2841 91.3722 24.2841C90.4328 24.2841 89.6335 24.1288 88.9744 23.8182C88.3229 23.5076 87.7888 23.1174 87.3722 22.6477C86.9555 22.1705 86.6373 21.6894 86.4176 21.2045H86.2017V24H81.429ZM86.1676 15.2727C86.1676 16.3106 86.3116 17.2159 86.5994 17.9886C86.8873 18.7614 87.304 19.3636 87.8494 19.7955C88.3949 20.2197 89.0578 20.4318 89.8381 20.4318C90.6259 20.4318 91.2926 20.2159 91.8381 19.7841C92.3835 19.3447 92.7964 18.7386 93.0767 17.9659C93.3646 17.1856 93.5085 16.2879 93.5085 15.2727C93.5085 14.2652 93.3684 13.3788 93.0881 12.6136C92.8078 11.8485 92.3949 11.25 91.8494 10.8182C91.304 10.3864 90.6335 10.1705 89.8381 10.1705C89.0502 10.1705 88.3835 10.3788 87.8381 10.7955C87.3002 11.2121 86.8873 11.803 86.5994 12.5682C86.3116 13.3333 86.1676 14.2348 86.1676 15.2727Z" fill="url(#paint0_linear_1_3)"/>
<defs>
<linearGradient id="paint0_linear_1_3" x1="49.5" y1="-7" x2="49.5" y2="32" gradientUnits="userSpaceOnUse">
<stop stop-color="white"/>
<stop offset="1" stop-color="white" stop-opacity="0"/>
</linearGradient>
</defs>
</svg>
